<?xml version="1.0" encoding="UTF-8" standalone="no"?><!DOCTYPE svg PUBLIC "-//W3C//DTD SVG 1.1//EN" "http://www.w3.org/Graphics/SVG/1.1/DTD/svg11.dtd"><svg width="100%" height="100%" viewBox="0 0 2000 2000" version="1.1" xmlns="http://www.w3.org/2000/svg" xmlns:xlink="http://www.w3.org/1999/xlink" xml:space="preserve" xmlns:serif="http://www.serif.com/" style="fill-rule:evenodd;clip-rule:evenodd;stroke-linejoin:round;stroke-miterlimit:2;"><circle cx="1000" cy="1000" r="892.075" style="fill:#fff;"/><g transform="matrix(3.307649,0,0,3.307649,-1997.616166,-1037.46098)"><text x="774.893px" y="636.981px" style="font-family:'Poppins-Black', 'Poppins';font-weight:900;font-size:50px;fill:#646464;">ABHISHEK</text><text x="808.818px" y="711.981px" style="font-family:'Poppins-Black', 'Poppins';font-weight:900;font-size:50px;fill:#646464;">KUMAR</text><g transform="matrix(50,0,0,50,1072.292924,786.981144)"></g><text x="738.743px" y="786.981px" style="font-family:'Poppins-Black', 'Poppins';font-weight:900;font-size:50px;fill:#646464;">CHAUDHARY</text></g><clipPath id="_clip1"><rect x="598.347" y="250.06" width="803.306" height="574.986"/></clipPath><g clip-path="url(#_clip1)"><g><path d="M1236.473,313.684c-1.004,-0.667 -2.008,-1.299 -3.012,-1.944c-28.924,-18.498 -59.926,-33.526 -92.365,-44.773l-7.522,103.762l-47.683,0l0,-118.908c-3.001,-0.621 -6.025,-1.205 -9.051,-1.759l0,120.668l-56.666,0c-64.525,0 -117.621,-53.096 -117.621,-117.621c-3.036,0.656 -6.05,1.358 -9.063,2.109l0,115.512l-46.153,0l-7.165,-98.943c-33.336,12.785 -64.984,29.598 -94.239,50.064c-0.502,0.345 -1.012,0.703 -1.506,1.046c-2.541,1.782 -5.049,3.6 -7.545,5.44l0,395.853l136.023,0l-2.404,-33.295l-13.226,-182.808l266.352,0l-13.226,182.808l-2.404,33.295l134.517,0l0,-406.503c-2.002,-1.357 -4.014,-2.691 -6.038,-4.002Zm-342.983,164.212l-38.402,0l-7.096,-98.104l45.498,0l0,98.104Zm183.35,0l-64.498,0c0,0 0,-1.944 0,-1.944c0,-3.899 -3.208,-7.107 -7.107,-7.107c-0.004,0 -0.008,0 -0.012,0l-28.039,0c-0.001,-0 -0.002,-0 -0.003,-0c-3.897,0 -7.104,3.207 -7.104,7.104c0,0.001 0,1.947 0,1.947l-67.523,0l0,-98.104l174.287,0l0,98.104Zm9.051,0l0,-98.104l47.028,0l-7.096,98.104l-39.931,0Z" style="fill:#e6e6e6;fill-rule:nonzero;"/><path d="M598.347,749.539c8.791,11.747 18.383,22.872 28.709,33.295l745.888,1.151c10.326,-10.423 19.919,-21.549 28.709,-33.296l-803.307,-1.15Z" style="fill:#f2f2f2;fill-rule:nonzero;"/><path d="M1106.516,642.926l0,98.569c0.002,2.598 2.139,4.736 4.737,4.737l146.063,0c2.598,-0.002 4.735,-2.139 4.737,-4.737l0,-98.569c-0.006,-2.596 -2.142,-4.729 -4.737,-4.732l-146.063,0c-2.596,0.003 -4.731,2.137 -4.737,4.732Z" style="fill:#3f3d56;fill-rule:nonzero;"/><path d="M1109.943,644.151l0,96.126c0.003,1.388 1.144,2.529 2.531,2.531l143.631,0c1.388,-0.003 2.529,-1.144 2.531,-2.531l0,-96.126c0,-1.39 -1.142,-2.534 -2.531,-2.537l-143.631,0c-1.39,0.003 -2.531,1.148 -2.531,2.537Z" style="fill:#6c63ff;fill-rule:nonzero;"/><path d="M1103.462,760.717c0.541,0.681 1.365,1.078 2.235,1.074l156.405,0c1.577,-0.003 2.873,-1.301 2.873,-2.878c0,-0.198 -0.021,-0.396 -0.061,-0.59l-2.428,-11.532c-0.204,-0.955 -0.88,-1.743 -1.792,-2.091c-0.325,-0.128 -0.672,-0.193 -1.021,-0.193l-151.557,0c-0.349,-0 -0.696,0.065 -1.021,0.193c-0.912,0.348 -1.588,1.136 -1.792,2.091l-2.428,11.532c-0.175,0.847 0.041,1.729 0.587,2.399l0.001,-0.005Z" style="fill:#2f2e41;fill-rule:nonzero;"/><path d="M1109.229,748.98l0,-1.91c0,-0.27 0.22,-0.49 0.49,-0.49l3.837,0c0.27,0 0.49,0.22 0.49,0.49l0,1.91c0,0.27 -0.22,0.49 -0.49,0.49l-3.837,0c-0.27,0 -0.49,-0.22 -0.49,-0.49Z" style="fill:#3f3d56;"/><path d="M1109.344,753.796l0,-1.91c0,-0.27 0.22,-0.49 0.49,-0.49l3.837,0c0.27,0 0.49,0.22 0.49,0.49l0,1.91c0,0.27 -0.22,0.49 -0.49,0.49l-3.837,0c-0.27,0 -0.49,-0.22 -0.49,-0.49Z" style="fill:#3f3d56;"/><path d="M1211.87,760.068l-37.415,0c-0.308,0 -0.561,-0.253 -0.561,-0.561l0,-1.767c0,-0.308 0.253,-0.561 0.561,-0.561l37.415,0c0.308,0 0.561,0.253 0.561,0.561l0,1.767c0,0.308 -0.253,0.561 -0.561,0.561Z" style="fill:#3f3d56;fill-rule:nonzero;"/><path d="M1136.61,664.213l0,0.456c0,0.865 -0.702,1.567 -1.567,1.567l-3.726,0c-0.865,0 -1.567,-0.702 -1.567,-1.567l0,-0.456c0,-0.865 0.702,-1.567 1.567,-1.567l3.726,0c0.865,0 1.567,0.702 1.567,1.567Z" style="fill:#fff;"/><path d="M1174.016,664.213l0,0.456c0,0.865 -0.702,1.567 -1.567,1.567l-3.726,0c-0.865,0 -1.567,-0.702 -1.567,-1.567l0,-0.456c0,-0.865 0.702,-1.567 1.567,-1.567l3.726,0c0.865,0 1.567,0.702 1.567,1.567Z" style="fill:#fff;"/><path d="M1184.614,664.213l0,0.456c0,0.865 -0.702,1.567 -1.567,1.567l-3.726,0c-0.865,0 -1.567,-0.702 -1.567,-1.567l0,-0.456c0,-0.865 0.702,-1.567 1.567,-1.567l3.726,0c0.865,0 1.567,0.702 1.567,1.567Z" style="fill:#fff;"/><path d="M1163.841,663.913l0,0.456c0,0.865 -0.702,1.567 -1.567,1.567l-20.783,0c-0.865,0 -1.567,-0.702 -1.567,-1.567l0,-0.456c0,-0.865 0.702,-1.567 1.567,-1.567l20.783,0c0.865,0 1.567,0.702 1.567,1.567Z" style="fill:#fff;"/><path d="M1213.714,663.913l0,0.456c0,0.865 -0.702,1.567 -1.567,1.567l-20.783,0c-0.865,0 -1.567,-0.702 -1.567,-1.567l0,-0.456c0,-0.865 0.702,-1.567 1.567,-1.567l20.783,0c0.865,0 1.567,0.702 1.567,1.567Z" style="fill:#fff;"/><path d="M1146.585,672.316l0,0.456c0,0.865 -0.702,1.567 -1.567,1.567l-3.726,0c-0.865,0 -1.567,-0.702 -1.567,-1.567l0,-0.456c0,-0.865 0.702,-1.567 1.567,-1.567l3.726,0c0.865,0 1.567,0.702 1.567,1.567Z" style="fill:#fff;"/><path d="M1183.99,672.316l0,0.456c0,0.865 -0.702,1.567 -1.567,1.567l-3.726,0c-0.865,0 -1.567,-0.702 -1.567,-1.567l0,-0.456c0,-0.865 0.702,-1.567 1.567,-1.567l3.726,0c0.865,0 1.567,0.702 1.567,1.567Z" style="fill:#fff;"/><path d="M1194.589,672.316l0,0.456c0,0.865 -0.702,1.567 -1.567,1.567l-3.726,0c-0.865,0 -1.567,-0.702 -1.567,-1.567l0,-0.456c0,-0.865 0.702,-1.567 1.567,-1.567l3.726,0c0.865,0 1.567,0.702 1.567,1.567Z" style="fill:#fff;"/><path d="M1173.816,672.017l0,0.456c0,0.865 -0.702,1.567 -1.567,1.567l-20.783,0c-0.865,0 -1.567,-0.702 -1.567,-1.567l0,-0.456c0,-0.865 0.702,-1.567 1.567,-1.567l20.783,0c0.865,0 1.567,0.702 1.567,1.567Z" style="fill:#fff;"/><path d="M1223.689,672.017l0,0.456c0,0.865 -0.702,1.567 -1.567,1.567l-20.783,0c-0.865,0 -1.567,-0.702 -1.567,-1.567l0,-0.456c0,-0.865 0.702,-1.567 1.567,-1.567l20.783,0c0.865,0 1.567,0.702 1.567,1.567Z" style="fill:#fff;"/><path d="M1156.56,680.421l0,0.456c0,0.865 -0.702,1.567 -1.567,1.567l-3.726,0c-0.865,0 -1.567,-0.702 -1.567,-1.567l0,-0.456c0,-0.865 0.702,-1.567 1.567,-1.567l3.726,0c0.865,0 1.567,0.702 1.567,1.567Z" style="fill:#fff;"/><path d="M1193.964,680.421l0,0.456c0,0.865 -0.702,1.567 -1.567,1.567l-3.726,0c-0.865,0 -1.567,-0.702 -1.567,-1.567l0,-0.456c0,-0.865 0.702,-1.567 1.567,-1.567l3.726,0c0.865,0 1.567,0.702 1.567,1.567Z" style="fill:#fff;"/><path d="M1204.563,680.421l0,0.456c0,0.865 -0.702,1.567 -1.567,1.567l-3.726,0c-0.865,0 -1.567,-0.702 -1.567,-1.567l0,-0.456c0,-0.865 0.702,-1.567 1.567,-1.567l3.726,0c0.865,0 1.567,0.702 1.567,1.567Z" style="fill:#fff;"/><path d="M1183.79,680.121l0,0.456c0,0.865 -0.702,1.567 -1.567,1.567l-20.783,0c-0.865,0 -1.567,-0.702 -1.567,-1.567l0,-0.456c0,-0.865 0.702,-1.567 1.567,-1.567l20.783,0c0.865,0 1.567,0.702 1.567,1.567Z" style="fill:#fff;"/><path d="M1233.664,680.121l0,0.456c0,0.865 -0.702,1.567 -1.567,1.567l-20.783,0c-0.865,0 -1.567,-0.702 -1.567,-1.567l0,-0.456c0,-0.865 0.702,-1.567 1.567,-1.567l20.783,0c0.865,0 1.567,0.702 1.567,1.567Z" style="fill:#fff;"/><path d="M1166.534,688.525l0,0.456c0,0.865 -0.702,1.567 -1.567,1.567l-3.726,0c-0.865,0 -1.567,-0.702 -1.567,-1.567l0,-0.456c0,-0.865 0.702,-1.567 1.567,-1.567l3.726,0c0.865,0 1.567,0.702 1.567,1.567Z" style="fill:#fff;"/><path d="M1203.939,688.525l0,0.456c0,0.865 -0.702,1.567 -1.567,1.567l-3.726,0c-0.865,0 -1.567,-0.702 -1.567,-1.567l0,-0.456c0,-0.865 0.702,-1.567 1.567,-1.567l3.726,0c0.865,0 1.567,0.702 1.567,1.567Z" style="fill:#fff;"/><path d="M1214.537,688.525l0,0.456c0,0.865 -0.702,1.567 -1.567,1.567l-3.726,0c-0.865,0 -1.567,-0.702 -1.567,-1.567l0,-0.456c0,-0.865 0.702,-1.567 1.567,-1.567l3.726,0c0.865,0 1.567,0.702 1.567,1.567Z" style="fill:#fff;"/><path d="M1193.765,688.226l0,0.456c0,0.865 -0.702,1.567 -1.567,1.567l-20.783,0c-0.865,0 -1.567,-0.702 -1.567,-1.567l0,-0.456c0,-0.865 0.702,-1.567 1.567,-1.567l20.783,0c0.865,0 1.567,0.702 1.567,1.567Z" style="fill:#fff;"/><path d="M1174.016,720.751l0,0.456c0,0.865 -0.702,1.567 -1.567,1.567l-3.726,0c-0.865,0 -1.567,-0.702 -1.567,-1.567l0,-0.456c0,-0.865 0.702,-1.567 1.567,-1.567l3.726,0c0.865,0 1.567,0.702 1.567,1.567Z" style="fill:#fff;"/><path d="M1184.614,720.751l0,0.456c0,0.865 -0.702,1.567 -1.567,1.567l-3.726,0c-0.865,0 -1.567,-0.702 -1.567,-1.567l0,-0.456c0,-0.865 0.702,-1.567 1.567,-1.567l3.726,0c0.865,0 1.567,0.702 1.567,1.567Z" style="fill:#fff;"/><path d="M1213.714,721.051l0,0.456c0,0.865 -0.702,1.567 -1.567,1.567l-20.783,0c-0.865,0 -1.567,-0.702 -1.567,-1.567l0,-0.456c0,-0.865 0.702,-1.567 1.567,-1.567l20.783,0c0.865,0 1.567,0.702 1.567,1.567Z" style="fill:#fff;"/><path d="M1136.61,720.751l0,0.456c0,0.865 -0.702,1.567 -1.567,1.567l-3.726,0c-0.865,0 -1.567,-0.702 -1.567,-1.567l0,-0.456c0,-0.865 0.702,-1.567 1.567,-1.567l3.726,0c0.865,0 1.567,0.702 1.567,1.567Z" style="fill:#fff;"/><path d="M1163.841,721.051l0,0.456c0,0.865 -0.702,1.567 -1.567,1.567l-20.783,0c-0.865,0 -1.567,-0.702 -1.567,-1.567l0,-0.456c0,-0.865 0.702,-1.567 1.567,-1.567l20.783,0c0.865,0 1.567,0.702 1.567,1.567Z" style="fill:#fff;"/><path d="M1146.585,712.647l0,0.456c0,0.865 -0.702,1.567 -1.567,1.567l-3.726,0c-0.865,0 -1.567,-0.702 -1.567,-1.567l0,-0.456c0,-0.865 0.702,-1.567 1.567,-1.567l3.726,0c0.865,0 1.567,0.702 1.567,1.567Z" style="fill:#fff;"/><path d="M1183.99,712.647l0,0.456c0,0.865 -0.702,1.567 -1.567,1.567l-3.726,0c-0.865,0 -1.567,-0.702 -1.567,-1.567l0,-0.456c0,-0.865 0.702,-1.567 1.567,-1.567l3.726,0c0.865,0 1.567,0.702 1.567,1.567Z" style="fill:#fff;"/><path d="M1194.589,712.647l0,0.456c0,0.865 -0.702,1.567 -1.567,1.567l-3.726,0c-0.865,0 -1.567,-0.702 -1.567,-1.567l0,-0.456c0,-0.865 0.702,-1.567 1.567,-1.567l3.726,0c0.865,0 1.567,0.702 1.567,1.567Z" style="fill:#fff;"/><path d="M1173.816,712.946l0,0.456c0,0.865 -0.702,1.567 -1.567,1.567l-20.783,0c-0.865,0 -1.567,-0.702 -1.567,-1.567l0,-0.456c0,-0.865 0.702,-1.567 1.567,-1.567l20.783,0c0.865,0 1.567,0.702 1.567,1.567Z" style="fill:#fff;"/><path d="M1156.56,704.543l0,0.456c0,0.865 -0.702,1.567 -1.567,1.567l-3.726,0c-0.865,0 -1.567,-0.702 -1.567,-1.567l0,-0.456c0,-0.865 0.702,-1.567 1.567,-1.567l3.726,0c0.865,0 1.567,0.702 1.567,1.567Z" style="fill:#fff;"/><path d="M1193.964,704.543l0,0.456c0,0.865 -0.702,1.567 -1.567,1.567l-3.726,0c-0.865,0 -1.567,-0.702 -1.567,-1.567l0,-0.456c0,-0.865 0.702,-1.567 1.567,-1.567l3.726,0c0.865,0 1.567,0.702 1.567,1.567Z" style="fill:#fff;"/><path d="M1204.563,704.543l0,0.456c0,0.865 -0.702,1.567 -1.567,1.567l-3.726,0c-0.865,0 -1.567,-0.702 -1.567,-1.567l0,-0.456c0,-0.865 0.702,-1.567 1.567,-1.567l3.726,0c0.865,0 1.567,0.702 1.567,1.567Z" style="fill:#fff;"/><path d="M1183.79,704.842l0,0.456c0,0.865 -0.702,1.567 -1.567,1.567l-20.783,0c-0.865,0 -1.567,-0.702 -1.567,-1.567l0,-0.456c0,-0.865 0.702,-1.567 1.567,-1.567l20.783,0c0.865,0 1.567,0.702 1.567,1.567Z" style="fill:#fff;"/><path d="M1166.534,696.438l0,0.456c0,0.865 -0.702,1.567 -1.567,1.567l-3.726,0c-0.865,0 -1.567,-0.702 -1.567,-1.567l0,-0.456c0,-0.865 0.702,-1.567 1.567,-1.567l3.726,0c0.865,0 1.567,0.702 1.567,1.567Z" style="fill:#fff;"/><path d="M1203.939,696.438l0,0.456c0,0.865 -0.702,1.567 -1.567,1.567l-3.726,0c-0.865,0 -1.567,-0.702 -1.567,-1.567l0,-0.456c0,-0.865 0.702,-1.567 1.567,-1.567l3.726,0c0.865,0 1.567,0.702 1.567,1.567Z" style="fill:#fff;"/><path d="M1214.537,696.438l0,0.456c0,0.865 -0.702,1.567 -1.567,1.567l-3.726,0c-0.865,0 -1.567,-0.702 -1.567,-1.567l0,-0.456c0,-0.865 0.702,-1.567 1.567,-1.567l3.726,0c0.865,0 1.567,0.702 1.567,1.567Z" style="fill:#fff;"/><path d="M1193.765,696.738l0,0.456c0,0.865 -0.702,1.567 -1.567,1.567l-20.783,0c-0.865,0 -1.567,-0.702 -1.567,-1.567l0,-0.456c0,-0.865 0.702,-1.567 1.567,-1.567l20.783,0c0.865,0 1.567,0.702 1.567,1.567Z" style="fill:#fff;"/><path d="M757.185,638.198l0,117.954l82.635,0l0,-117.954c0.003,-1.737 -1.135,-3.283 -2.794,-3.796c-0.382,-0.126 -0.782,-0.188 -1.185,-0.184l-74.665,0c-0.002,-0 -0.005,-0 -0.007,-0c-2.184,0 -3.981,1.796 -3.983,3.979Zm32.253,40.53c0,-4.839 3.982,-8.821 8.821,-8.821c4.839,0 8.821,3.982 8.821,8.821l0,13.686c0,4.839 -3.982,8.821 -8.821,8.821c-4.839,0 -8.821,-3.982 -8.821,-8.821l0,-13.686Z" style="fill:#2f2e41;fill-rule:nonzero;"/><path d="M756.932,752.38l0,11.375c0.004,1.218 1.002,2.221 2.22,2.231l78.702,0c1.22,-0.006 2.22,-1.011 2.22,-2.231l0,-11.375l-83.142,0Z" style="fill:#3f3d56;fill-rule:nonzero;"/><path d="M627.189,460.484l0,215.368c0.004,5.677 4.674,10.346 10.351,10.351l319.155,0c5.677,-0.004 10.346,-4.674 10.351,-10.351l0,-215.368c-0.012,-5.672 -4.678,-10.335 -10.351,-10.343l-319.155,0c-5.672,0.007 -10.339,4.67 -10.351,10.343Z" style="fill:#3f3d56;fill-rule:nonzero;"/><path d="M634.676,463.164l0,210.031c0.005,3.033 2.499,5.526 5.532,5.532l313.828,0c3.033,-0.005 5.526,-2.499 5.532,-5.532l0,-210.031c0,-3.037 -2.495,-5.537 -5.532,-5.544l-313.828,0c-3.037,0.007 -5.532,2.507 -5.532,5.544Z" style="fill:#fff;fill-rule:nonzero;"/><path d="M692.919,765.215c0.647,0.811 1.631,1.282 2.668,1.276l186.705,0c1.883,-0.003 3.431,-1.553 3.431,-3.436c0,-0.237 -0.024,-0.472 -0.073,-0.704l-2.898,-13.767c-0.244,-1.139 -1.05,-2.08 -2.139,-2.495c-0.388,-0.152 -0.802,-0.23 -1.219,-0.23l-180.923,0c-0.417,-0 -0.831,0.078 -1.219,0.23c-1.089,0.415 -1.895,1.356 -2.139,2.495l-2.898,13.767c-0.208,1.011 0.05,2.064 0.703,2.864Z" style="fill:#2f2e41;fill-rule:nonzero;"/><path d="M943.852,486.554l-293.648,0c-0.641,0 -1.168,-0.527 -1.168,-1.168c0,-0.641 0.527,-1.168 1.168,-1.168l293.648,0c0.641,0 1.168,0.527 1.168,1.168c0,0.641 -0.527,1.168 -1.168,1.168Z" style="fill:#3f3d56;fill-rule:nonzero;"/><ellipse cx="670.192" cy="471.259" rx="6.843" ry="6.996" style="fill:#3f3d56;"/><ellipse cx="693.833" cy="471.259" rx="6.843" ry="6.996" style="fill:#3f3d56;"/><ellipse cx="717.474" cy="471.259" rx="6.843" ry="6.996" style="fill:#3f3d56;"/><path d="M1116.373,745.754l139.155,0l2.74,9.201l-141.895,0l0,-9.201Z" style="fill:#3f3d56;fill-rule:nonzero;"/><path d="M929.615,465.993l-16.792,0c-0.684,0.019 -1.236,0.587 -1.236,1.271c0,0.684 0.552,1.252 1.236,1.271l16.791,0c0.012,0 0.024,0.001 0.036,0.001c0.697,0 1.271,-0.574 1.271,-1.271c0,-0.697 -0.574,-1.271 -1.271,-1.271c-0.012,0 -0.024,0 -0.036,0.001l0.001,-0Z" style="fill:#3f3d56;fill-rule:nonzero;"/><path d="M929.614,470.766l-16.791,0c-0.697,0 -1.271,0.574 -1.271,1.271c0,0.697 0.574,1.271 1.271,1.271l16.791,-0c0.012,0 0.024,0.001 0.036,0.001c0.697,0 1.271,-0.574 1.271,-1.271c0,-0.697 -0.574,-1.271 -1.271,-1.271c-0.012,0 -0.024,0 -0.036,0.001l0,-0.001Z" style="fill:#3f3d56;fill-rule:nonzero;"/><path d="M929.615,475.539l-16.792,0c-0.684,0.019 -1.236,0.587 -1.236,1.271c0,0.684 0.552,1.252 1.236,1.271l16.791,0c0.012,0 0.024,0.001 0.036,0.001c0.697,0 1.271,-0.574 1.271,-1.271c0,-0.697 -0.574,-1.271 -1.271,-1.271c-0.012,0 -0.024,0 -0.036,0.001l0.001,0Z" style="fill:#3f3d56;fill-rule:nonzero;"/><g><path d="M1313.855,757.401c0.912,2.657 3.45,4.434 6.259,4.384l26.816,-0.69c2.832,-0.055 5.306,-1.982 6.054,-4.714l3.795,-40.578c1.346,0.61 2.812,0.911 4.29,0.882c5.27,-0.132 9.534,-4.504 9.534,-9.776c0,-5.365 -4.415,-9.779 -9.779,-9.779c-0.082,0 -0.164,0.001 -0.246,0.003c-0.591,-0.002 -1.18,0.059 -1.757,0.183c-1.27,-1.374 -3.063,-2.147 -4.933,-2.129l-41.249,1.065c-0.342,0.013 -0.682,0.055 -1.017,0.127c-3.038,0.567 -5.261,3.243 -5.261,6.333c0,0.691 0.111,1.377 0.329,2.032l7.166,52.658Zm43.702,-44.353l2.7,-9.67c0.307,-1.116 0.314,-2.294 0.021,-3.414c0.131,0 0.247,-0.062 0.378,-0.062c0.055,-0.001 0.109,-0.002 0.164,-0.002c3.837,0 6.995,3.158 6.995,6.995c0,3.776 -3.057,6.905 -6.832,6.993c-1.197,0.037 -2.382,-0.253 -3.426,-0.838l0,-0.002Z" style="fill:#e6e6e6;fill-rule:nonzero;"/><path d="M1311.62,696.382c0.879,5.021 10.759,8.557 22.639,7.944c10.925,-0.502 19.858,-4.34 21.494,-8.886c-0.606,-0.179 -1.235,-0.263 -1.867,-0.249l-41.249,1.065c-0.342,0.013 -0.682,0.055 -1.017,0.127l-0.001,-0.001Z" style="fill:#d6d6e3;fill-rule:nonzero;"/></g><g><path d="M1031.183,667.724c0,0 -89.24,10.762 -80.719,0c3.086,-3.893 3.937,-15.426 3.766,-28.566c-0.054,-3.991 -0.201,-8.125 -0.402,-12.242c-0.987,-19.731 -3.363,-39.015 -3.363,-39.015c0,0 78.029,-36.772 69.06,-7.623c-3.588,11.776 -2.41,28.317 0.314,43.839c0.798,4.53 1.722,8.969 2.691,13.184c2.363,10.282 5.25,20.436 8.652,30.422Z" style="fill:#ed9da0;fill-rule:nonzero;"/><path d="M861.798,825.01l0,-0.753l157.51,-1.713l95.967,-0.897l0.269,0l-0.1,1.327l0.135,-1.327l0.171,0l0,-0.153l1.229,-12.063l0.466,-4.565l0.144,-1.426l0.126,-1.193l5.543,-18.485l5.543,-18.458l4.664,-15.543l7.121,-23.75c0,0 -4.036,-9.418 -6.278,-12.108c-2.242,-2.69 -11.045,-21.946 -11.045,-21.946c0,0 -12.575,-17.363 -20.942,-19.462c-3.506,-0.897 -10.431,-2.09 -17.785,-3.588c-2.753,-0.556 -23.856,-6.651 -25.112,-7.498c-6.592,-4.834 -23.113,-5.381 -23.75,-5.381c-0.002,-0.021 -0.002,-0.042 0,-0.063l0,-0.08c0.023,-0.376 0.023,-0.753 0,-1.13c0.01,-0.42 -0.017,-0.84 -0.08,-1.255c0.009,-0.152 -0.012,-0.305 -0.063,-0.449c-0.045,-0.323 -0.1,-0.664 -0.18,-1.022c-0.027,-0.16 -0.063,-0.319 -0.107,-0.475c-0.26,-1.081 -0.636,-2.13 -1.122,-3.13c-0.063,-0.144 -0.144,-0.296 -0.215,-0.44c-0.44,-0.828 -0.95,-1.618 -1.524,-2.359c-0.116,-0.153 -0.242,-0.314 -0.377,-0.466c-0.735,-0.866 -1.552,-1.659 -2.44,-2.368c-0.242,-0.189 -0.493,-0.386 -0.753,-0.565c-0.145,-0.118 -0.298,-0.226 -0.458,-0.323l-0.798,-0.52l-0.744,-0.431c-0.655,-0.358 -1.346,-0.709 -2.099,-1.04c-0.233,-0.107 -0.484,-0.206 -0.735,-0.301c-0.251,-0.095 -0.646,-0.251 -0.978,-0.377l-0.054,0l-0.673,-0.269c-0.511,-0.171 -1.031,-0.323 -1.578,-0.475l-0.834,-0.215l-0.897,-0.206l-0.897,-0.189c-0.897,-0.18 -1.857,-0.34 -2.861,-0.466l-1.022,-0.126l-1.049,-0.107l-1.085,-0.089l-1.542,-0.089l-1.793,-0.063c-7.915,-0.001 -15.807,0.839 -23.545,2.504c-5.37,-1.195 -10.87,-1.701 -16.367,-1.506l-0.78,0l-0.897,0.054l-0.576,0l-1.157,0.107c-0.391,0.018 -0.781,0.063 -1.166,0.135c-0.386,0.054 -0.789,0.1 -1.175,0.162l-0.591,0.1c-0.583,0.1 -1.175,0.206 -1.793,0.331c-0.197,0.036 -0.395,0.081 -0.591,0.135c-0.78,0.171 -1.56,0.377 -2.332,0.61c-0.386,0.107 -0.771,0.233 -1.157,0.368c-0.201,0.054 -0.386,0.126 -0.574,0.201l-0.574,0.206l-0.565,0.224l-0.673,0.269c-0.34,0.144 -0.673,0.296 -1.004,0.458c-0.189,0.08 -0.377,0.171 -0.556,0.269c-0.18,0.098 -0.368,0.18 -0.538,0.278c-2.028,1.048 -3.902,2.37 -5.57,3.928l-0.458,0.44l-0.449,0.458c-0.153,0.153 -0.296,0.314 -0.44,0.475c-0.585,0.639 -1.13,1.313 -1.633,2.018c-0.144,0.189 -0.278,0.377 -0.413,0.574c-0.569,0.839 -1.084,1.714 -1.542,2.619c-0.116,0.215 -0.224,0.44 -0.331,0.655c-0.732,1.515 -1.332,3.09 -1.793,4.708c-0.167,0.598 -0.32,1.196 -0.458,1.793c-0.138,0.598 -18.987,8.377 -34.736,14.44c-4.188,1.615 -8.133,3.077 -11.435,4.179c-0.96,0.322 -1.857,0.619 -2.691,0.897c-1.81,0.654 -3.692,1.088 -5.605,1.291c-0.902,0.015 -1.802,0.099 -2.691,0.251c-7.238,1.175 -19.642,6.278 -20.996,11.4c-0.11,0.409 -0.14,0.835 -0.089,1.255c0.051,0.42 -29.498,91.33 -29.823,93.007c-1.305,6.834 -4.217,19.848 -5.65,25.112c-1.067,3.928 -2.619,9.309 -3.686,13.005c-0.016,0.108 -0.046,0.214 -0.089,0.314l40.207,-0.395l0,0.753l0.126,0l-0.054,-0.014Z" style="fill:#6c63ff;fill-rule:nonzero;"/><path d="M1035.722,654.791c-26.007,4.79 -74.98,3.757 -96.146,3.031c7.758,-27.803 45.588,-18.351 45.588,-18.351c46.828,-9.345 50.414,10.045 50.558,15.319Z" style="fill:#6c63ff;fill-rule:nonzero;"/><path d="M1173.788,777.368c0,0 30.637,-4.708 31.239,8.745c0.601,13.453 -15.623,22.852 -15.623,22.852l-15.615,-31.597Z" style="fill:#ed9da0;fill-rule:nonzero;"/><path d="M1196.506,804.274c0,0 -0.798,1.901 -2.269,4.655c-2.225,4.236 -4.934,8.2 -8.072,11.812l-0.242,0.26l-1.453,0l-51.786,0.475l-1.238,0l-0.153,-0.18l-10.041,-11.919l-3.785,-4.493l-0.153,-0.189l-0.322,-0.377l-0.18,-0.215l-0.233,-0.278l-7.363,-8.736l2.691,-11.211l4.583,-18.889l0.116,-0.458l0.897,-3.588l0.637,-2.691l2.135,-8.771l7.318,-30.18l13.005,6.728l13.711,24.223l7.363,13.005l4.034,0c0.762,0 2.51,1.471 4.27,3.166c0.628,0.602 1.255,1.238 1.793,1.793c1.597,1.65 2.861,3.068 2.861,3.068c0,0 6.538,0.144 8.296,5.292c0.091,0.249 0.165,0.504 0.224,0.762c0.584,2.023 1.343,3.992 2.269,5.883c1.157,2.52 2.611,5.381 4.081,8.242c2.735,5.247 5.516,10.242 6.538,12.05l0.126,0.224l0.343,0.538Z" style="fill:#6c63ff;fill-rule:nonzero;"/><path d="M861.798,825.011l0,-0.753l157.51,-1.713l95.967,-0.897l0.269,0l0,-0.153l0.897,-12.05l0.386,-5.381l1.471,-20.283l1.157,-16.054l0,-0.395c0.053,-0.74 0.019,-1.483 -0.1,-2.215c0.005,-0.03 0.005,-0.06 -0,-0.089c-0.246,-1.513 -0.862,-2.943 -1.793,-4.161c-2.005,-2.572 -5.205,-3.931 -8.449,-3.588c-10.862,1.113 -21.83,2 -32.808,2.691c-1.498,0.107 -2.995,0.201 -4.484,0.278c-70.8,4.206 -140.963,0.798 -178.928,-1.793l-2.691,-0.201c-6.574,-0.467 -12.072,-0.897 -16.305,-1.264c-4.799,-0.405 -9.179,2.919 -10.08,7.65c-0.091,0.486 -0.145,0.977 -0.162,1.471l-0.61,19.875l-0.834,25.176l-0.395,12.879l0,1.004l-0.016,-0.034Z" style="fill:#090814;fill-rule:nonzero;"/><circle cx="979.115" cy="577.368" r="51.951" style="fill:#ed9da0;"/><path d="M1049.332,541.081c-0.813,-0.869 -1.946,-1.37 -3.136,-1.388l0.781,-2.169c0.17,-0.459 0.258,-0.944 0.258,-1.433c0,-2.258 -1.858,-4.117 -4.117,-4.117c-0.255,0 -0.509,0.024 -0.76,0.071l-2.845,0.548l0.268,-1.901c0.029,-0.198 0.044,-0.397 0.044,-0.597c0,-2.258 -1.858,-4.117 -4.117,-4.117c-0.492,0 -0.98,0.088 -1.441,0.261c-1.234,0.486 -2.624,0.387 -3.778,-0.268c-1.157,-0.635 -1.977,-1.75 -2.238,-3.044l-0.991,-4.78l-0.1,-0.256c-4.827,-8.045 -14.107,-13.897 -25.464,-16.043c-10.109,-1.924 -20.473,-0.944 -30.465,-0.023c-3.964,0.374 -8.441,0.793 -12.172,3.078c-3.171,1.959 -5.853,5.876 -5.305,9.828c-9.852,-3.019 -20.415,3.012 -25.65,10.61c-6.203,9.047 -7.217,20.384 -7.38,29.24c-0.443,20.963 3.883,38.114 12.825,50.985c0.653,0.933 0.816,2.88 2.109,3.533l-0.268,-0.432c1.446,0.723 2.912,1.889 2.367,3.136c-1.573,3.591 8.885,11.53 16.253,14.158c13.443,4.792 31.316,4.384 43.881,2.658l0.443,-2.973c4.536,-0.618 7.732,-1.795 8.628,-3.638c1.586,-1.353 2.938,-2.565 4.117,-3.684l0.012,-0.012c0.023,-0.023 0.07,-0.058 0.093,-0.081c5.678,-5.444 6.996,-8.546 7.59,-13.268c0.571,-4.629 -0.443,-9.327 -1.481,-13.556c21.849,3.381 -8.604,-23.272 11.748,-28.425c0.233,-0.072 0.471,-0.13 0.711,-0.175c0.594,-0.14 1.189,-0.28 1.76,-0.443c2.753,-0.747 5.389,-1.874 7.832,-3.346c5.689,-3.462 7.567,-8.056 10.505,-13.232c0.868,-1.508 0.655,-3.418 -0.524,-4.698l0.008,-0.007Z" style="fill:#090814;fill-rule:nonzero;"/></g><g><path d="M752.94,529.536l87.408,0c3.785,0 6.9,3.115 6.9,6.9c0,3.785 -3.115,6.9 -6.9,6.9l-87.408,0c-3.785,0 -6.9,-3.115 -6.9,-6.9c0,-3.785 3.115,-6.9 6.9,-6.9Z" style="fill:#6c63ff;fill-rule:nonzero;"/><path d="M729.939,561.738l133.412,0c3.785,0 6.9,3.115 6.9,6.9c0,3.785 -3.115,6.9 -6.9,6.9l-133.412,0c-3.785,0 -6.9,-3.115 -6.9,-6.9c0,-3.785 3.115,-6.9 6.9,-6.9Z" style="fill:#e6e6e6;fill-rule:nonzero;"/><path d="M729.939,593.942l133.412,0c3.785,0 6.9,3.115 6.9,6.9c0,3.785 -3.115,6.9 -6.9,6.9l-133.412,0c-3.785,0 -6.9,-3.115 -6.9,-6.9c0,-3.785 3.115,-6.9 6.9,-6.9Z" style="fill:#e6e6e6;fill-rule:nonzero;"/></g></g></g></svg>